# This file uses centimeters as units for non-parametric coordinates.

mtllib hallway.mtl
g default
v -2.231976 0.033126 11.206703
v 2.231976 0.033126 11.206703
v -2.231976 3.640774 11.206703
v 2.231976 3.640774 11.206703
v -2.231976 3.640774 -11.206703
v 2.231976 3.640774 -11.206703
v -2.231976 0.033126 -11.206703
v 2.231976 0.033126 -11.206703
v 2.231976 3.640774 0.055688
v -2.231976 3.640774 0.055688
v -2.231976 0.033126 0.055688
v 2.231976 0.033126 0.055688
v 2.231976 3.640774 -6.365155
v -2.231976 3.640774 -6.365155
v -2.231976 0.033126 -6.365156
v 2.231976 0.033126 -6.365156
v 4.731977 0.033126 0.055688
v 4.731977 3.640774 0.055688
v 4.731977 0.033126 -6.365156
v 4.731977 3.640774 -6.365156
v -4.731977 0.033126 -6.365156
v -4.731977 0.033126 0.055688
v -4.731977 3.640774 0.055688
v -4.731977 3.640774 -6.365156
vt 0.375000 0.000000
vt 0.625000 0.000000
vt 0.375000 0.250000
vt 0.625000 0.250000
vt 0.375000 0.500000
vt 0.625000 0.500000
vt 0.375000 0.750000
vt 0.625000 0.750000
vt 0.875000 0.000000
vt 0.875000 0.250000
vt 0.125000 0.000000
vt 0.125000 0.250000
vt 0.709088 0.250000
vt 0.290912 0.250000
vt 0.290912 0.000000
vt 0.709088 0.000000
vt 0.759418 0.250000
vt 0.240582 0.250000
vt 0.240582 0.000000
vt 0.759418 0.000000
vt 0.709088 0.250000
vt 0.709088 0.000000
vt 0.759418 0.000000
vt 0.759418 0.250000
vt 0.240582 0.000000
vt 0.290912 0.000000
vt 0.290912 0.250000
vt 0.240582 0.250000
vn 0.000000 0.000000 -1.000000
vn 0.000000 0.000000 -1.000000
vn 0.000000 0.000000 -1.000000
vn 0.000000 0.000000 -1.000000
vn 0.000000 0.000000 1.000000
vn 0.000000 0.000000 1.000000
vn 0.000000 0.000000 1.000000
vn 0.000000 0.000000 1.000000
vn -1.000000 0.000000 0.000000
vn -1.000000 0.000000 0.000000
vn -1.000000 0.000000 0.000000
vn -1.000000 0.000000 0.000000
vn 1.000000 0.000000 0.000000
vn 1.000000 0.000000 0.000000
vn 1.000000 0.000000 0.000000
vn 1.000000 0.000000 0.000000
vn 1.000000 0.000000 0.000000
vn 1.000000 0.000000 0.000000
vn 1.000000 0.000000 0.000000
vn 1.000000 0.000000 0.000000
vn -1.000000 0.000000 0.000000
vn -1.000000 0.000000 0.000000
vn -1.000000 0.000000 0.000000
vn -1.000000 0.000000 0.000000
vn 1.000000 0.000000 0.000000
vn 1.000000 0.000000 0.000000
vn 1.000000 0.000000 0.000000
vn 1.000000 0.000000 0.000000
vn -1.000000 0.000000 -0.000000
vn -1.000000 0.000000 -0.000000
vn -1.000000 0.000000 -0.000000
vn -1.000000 0.000000 -0.000000
vn 0.000000 0.000000 -1.000000
vn 0.000000 0.000000 -1.000000
vn 0.000000 0.000000 -1.000000
vn 0.000000 0.000000 -1.000000
vn 0.000001 -0.000000 1.000000
vn 0.000001 -0.000000 1.000000
vn 0.000001 -0.000000 1.000000
vn 0.000001 -0.000000 1.000000
vn 0.000000 0.000000 -1.000000
vn 0.000000 0.000000 -1.000000
vn 0.000000 0.000000 -1.000000
vn 0.000000 0.000000 -1.000000
vn -0.000001 -0.000000 1.000000
vn -0.000001 -0.000000 1.000000
vn -0.000001 -0.000000 1.000000
vn -0.000001 -0.000000 1.000000
s off
g pCube1
usemtl lambert2SG
f 1/1/1 3/3/2 4/4/3 2/2/4
f 5/5/5 7/7/6 8/8/7 6/6/8
f 2/2/9 4/4/10 9/13/11 12/16/12
f 11/15/13 10/14/14 3/3/15 1/1/16
f 21/25/17 24/28/18 23/27/19 22/26/20
f 18/21/21 20/24/22 19/23/23 17/22/24
f 7/11/25 5/12/26 14/18/27 15/19/28
f 13/17/29 6/10/30 8/9/31 16/20/32
f 9/13/33 18/21/34 17/22/35 12/16/36
f 16/20/37 19/23/38 20/24/39 13/17/40
f 11/15/41 22/26/42 23/27/43 10/14/44
f 14/18/45 24/28/46 21/25/47 15/19/48
